<svg aria-hidden="true" style="position: absolute; width: 0; height: 0; overflow: hidden;" version="1.1" xmlns="http://www.w3.org/2000/svg" xmlns:xlink="http://www.w3.org/1999/xlink">
<defs>
<symbol id="search-svg" viewBox="0 0 32 32">
<path d="M4.923 12.308c0 4.078 3.306 7.385 7.385 7.385s7.385-3.306 7.385-7.385c0-4.078-3.306-7.385-7.385-7.385s-7.385 3.306-7.385 7.385zM17.737 23.356c-1.638 0.806-3.481 1.259-5.429 1.259-6.797 0-12.308-5.51-12.308-12.308s5.51-12.308 12.308-12.308c6.797 0 12.308 5.51 12.308 12.308 0 2.701-0.87 5.198-2.345 7.228l6.895 6.895c1.154 1.153 1.154 3.024 0 4.177s-3.024 1.153-4.177 0l-7.251-7.251z"></path>
</symbol>
</defs>
</svg>
